<svg xmlns="http://www.w3.org/2000/svg" xmlns:xlink="http://www.w3.org/1999/xlink" xmlns:fi="http://pattern.flaticon.com/" x="0" y="0" width="1280" height="640" viewBox="0 0 1792 896"><rect x="0px" y="0px" width="100%" height="100%" opacity="0" fill="#ffffff"/><defs><g transform="matrix(0.10308895049547492 0.07676837038011768 -0.07676837038011768 0.10308895049547492 124.32564594171451 23.15855666488288)" id="L1_64"><path d="m273.574219 228.03125c.953125.324219 1.9375.476562 2.890625.476562 3.757812 0 7.261718-2.359374 8.53125-6.117187 2.820312-8.273437 11.839844-12.714844 20.109375-9.914063 17.679687 5.984376 36.96875-3.503906 42.960937-21.191406 1.605469-4.703125-.917968-9.828125-5.628906-11.433594-4.730469-1.59375-9.832031.929688-11.433594 5.640626-2.8125 8.28125-11.832031 12.722656-20.113281 9.914062-17.648437-5.957031-36.960937 3.511719-42.960937 21.191406-1.59375 4.703125.929687 9.828125 5.644531 11.433594zm0 0"/><path d="m294.890625 165.246094c.957031.324218 1.9375.476562 2.890625.476562 3.757812 0 7.261719-2.359375 8.53125-6.117187 1.363281-4.011719 4.199219-7.253907 8.003906-9.128907 3.800782-1.871093 8.097656-2.140624 12.109375-.78125 17.675781 5.984376 36.960938-3.503906 42.960938-21.203124 1.601562-4.703126-.929688-9.828126-5.632813-11.433594-4.710937-1.621094-9.832031.929687-11.425781 5.640625-2.808594 8.289062-11.8125 12.734375-20.109375 9.921875-8.578125-2.914063-17.761719-2.316406-25.871094 1.691406-8.109375 4-14.179687 10.929688-17.089844 19.5-1.613281 4.710938.917969 9.832031 5.632813 11.433594zm0 0"/><path d="m316.191406 102.464844c.960938.324218 1.9375.476562 2.902344.476562 3.757812 0 7.261719-2.363281 8.53125-6.121094 2.070312-6.109374 8.75-9.398437 14.847656-7.324218 7.523438 2.550781 15.589844 2.027344 22.714844-1.476563 7.121094-3.515625 12.445312-9.585937 15.003906-17.113281 1.601563-4.703125-.921875-9.828125-5.632812-11.429688-4.730469-1.613281-9.832032.925782-11.433594 5.636719-1.011719 2.964844-3.109375 5.363281-5.914062 6.742188-2.800782 1.375-5.972657 1.585937-8.945313.566406-15.515625-5.234375-32.445313 3.089844-37.707031 18.597656-1.59375 4.722657.917968 9.839844 5.632812 11.445313zm0 0"/><path d="m381.460938 227.363281c-1.566407-1.070312-3.332032-1.683593-5.136719-1.917969 17.902343-58.179687 27.726562-115.175781 29.132812-169.464843.441407-17.074219-7.902343-39.871094-24.726562-50.421875-8.070313-5.070313-21.300781-9.25-38.472657-.414063-26.914062 13.886719-46.160156 54.730469-61.621093 87.5625-.890625 1.890625-1.765625 3.738281-2.628907 5.566407-3.417968-15.703126-13.796874-29.136719-28.554687-36.148438-3.476563-16.722656-16.742187-29.824219-33.410156-33.21875-.179688-.9375-.40625-1.859375-.683594-2.785156-3.433594-11.730469-13.785156-20.5625-25.761719-21.984375-6.746094-.800781-13.433594.59375-19.144531 3.9375-4.867187-2.710938-10.328125-4.152344-15.933594-4.152344-15.667969 0-28.832031 10.929687-32.265625 25.554687-17.128906 4.664063-29.691406 20.382813-29.824218 38.65625-19.542969 5.046876-33.78125 22.707032-33.78125 43.710938 0 5.570312 1.046874 11.082031 3.054687 16.28125-5.070313 6.261719-7.882813 14.101562-7.882813 22.328125 0 4.9375 1.015626 9.695313 2.9375 14.089844-9-9.820313-21.667968-17.847657-35.894531-17.324219-4.976562.160156-8.886719 4.316406-8.734375 9.289062.152344 4.875 4.15625 8.730469 9.003906 8.730469.304688.011719.582032-.015625.871094-.015625 8.445313 0 16.292969 5.585938 22.003906 12.070313-14.289062 4.121093-31.519531 10.820312-39.554687 25.980469-4.839844 9.144531-5.40625 20.359374-2.179687 33.210937-1.558594 2.605469-2.414063 5.632813-2.2539068 8.855469l15.3359378 217.933594c1.398437 27.328124 23.921875 48.726562 51.277343 48.726562h252.929688c27.355469 0 49.878906-21.398438 51.265625-48.5625l15.722656-225.511719c0-.050781.011719-.105469.011719-.160156.25-4.15625-1.667969-8.039063-5.101562-10.402344zm-96.105469-103.320312c3.570312-6.65625 7.460937-14.914063 11.578125-23.660157 13.542968-28.761718 32.105468-68.144531 53.578125-79.226562 7.835937-4.039062 14.585937-4.121094 20.640625-.34375 10.441406 6.558594 16.589844 23.109375 16.289062 34.699219-1.378906 53.269531-11.109375 109.328125-28.929687 166.636719-.585938 1.882812-1.882813 5.683593-3.730469 10.902343l-15.355469 6.820313c-.332031.152344-.65625.316406-.972656.511718-4.433594 2.660157-9.40625 3.972657-14.382813 4.027344-4.972656-.054687-9.9375-1.367187-14.371093-4.027344l-6.421875-3.855468c-7.390625-4.433594-15.671875-6.648438-23.953125-6.648438-.097657 0-.195313.015625-.304688.015625-8.378906-.054687-16.777343 2.136719-24.257812 6.632813l-6.414063 3.855468c-3.578125 2.144532-7.53125 3.191407-11.535156 3.640626.226562-.78125.488281-1.550782.722656-2.324219 2.46875-8.386719 5.117188-16.660157 7.890625-24.867188 1.054688-3.121093 2.15625-6.21875 3.253907-9.308593 2.316406-6.515626 4.738281-12.945313 7.246093-19.335938 1.117188-2.855469 2.207031-5.738281 3.359375-8.566406 7.863282-19.167969 16.53125-37.753906 26.070313-55.578125zm-114.859375 21.371093c1.050781-1.351562 2.078125-2.664062 3.054687-3.945312 0-.015625.007813-.027344.015625-.035156.710938-.945313 1.332032-1.929688 1.855469-2.914063 2.21875-4.167969 2.738281-8.855469 1.710937-13.433593l37.609376-8.222657c.253906 1.152344.523437 2.296875.957031 3.359375 1.683593 4.125 4.695312 7.558594 8.882812 9.957032 1.371094.757812 2.804688 1.511718 4.28125 2.296874 1.214844.640626 2.433594 1.304688 3.65625 1.972657.585938.316406 1.179688.628906 1.765625.957031 1.074219.601562 2.109375 1.269531 3.152344 1.925781.894531.550781 1.777344 1.117188 2.640625 1.722657 1 .691406 1.957031 1.457031 2.910156 2.234374.839844.683594 1.640625 1.433594 2.433594 2.199219.855469.835938 1.703125 1.691407 2.488281 2.628907 1.386719 1.65625 2.71875 3.378906 3.808594 5.441406-3.820312 8.433594-7.414062 17.039062-10.890625 25.714844-.542969 1.34375-1.117187 2.652343-1.648437 3.992187-9.875 2.503906-19.417969 7.191406-31.203126 15.578125-14.851562 10.550781-25.90625 13.355469-44.125 10.714844l-5.46875-25.039063c-3.710937-16.929687 4.335938-27.183593 12.113282-37.105469zm44.679687-54.71875c.234375-.042968.46875-.070312.703125-.070312 1.703125 0 3.296875 1.21875 3.667969 2.929688.289063 1.296874-.199219 2.316406-.523437 2.808593-.316407.488281-1.027344 1.34375-2.316407 1.621094l-49.773437 10.894531c-1.980469.433594-4-.882812-4.433594-2.847656-.429688-1.972656.875-4 2.847656-4.433594l26.445313-5.785156zm-29.121093 139.363282c-.683594.046875-1.378907.0625-2.0625.136718-4.914063.496094-9.761719 1.738282-14.363282 3.808594l-1.722656-7.882812c2.597656.214844 5.183594.433594 7.605469.433594 15.714843 0 28.367187-4.679688 42.90625-15.023438 4.578125-3.261719 8.632812-5.730469 12.488281-7.773438-.828125 2.351563-1.648438 4.691407-2.449219 7.054688-.578125 1.691406-1.199219 3.359375-1.757812 5.0625-2.648438 8.019531-5.171875 16.101562-7.523438 24.257812l-5.992187-3.585937c-7.386719-4.433594-15.667969-6.652344-23.949219-6.652344-.109375 0-.222656.019531-.332031.019531-.953125-.019531-1.902344.089844-2.847656.144532zm-107.773438-93.175782 5.902344-4.863281-3.828125-6.605469c-2.398438-4.144531-3.667969-8.832031-3.667969-13.570312 0-14.597656 11.433594-26.5 26.03125-27.109375l10.9375-.460937-2.550781-10.652344c-.429688-1.78125-.648438-3.539063-.648438-5.207032 0-11.605468 9.066407-21.378906 20.632813-22.261718l8.328125-.632813v-8.964843c.261719-8.097657 6.9375-14.613282 15.109375-14.613282 4.703125 0 8.074218 2.144532 10.066406 3.945313l6.316406 5.703125 6.054688-5.980469c2.773437-2.738281 6.585937-4.019531 10.515625-3.570313 4.828125.570313 9.1875 4.335938 10.59375 9.175782.476562 1.621094.613281 3.1875.425781 4.785156l-1.054688 10.0625h10.144532c12.949218 0 23.777344 10.121094 24.671875 23.039062l.40625 5.921876 5.59375 1.960937c14.082031 4.949219 23.347656 18.273437 23.03125 33.1875-.136719 6.371094-2.191407 12.503906-5.914063 17.882813-6.027344-5.117188-12.523437-8.566407-17.984375-11.441407-1.414062-.75-2.78125-1.46875-4.160156-2.234375-.390625-.21875-.859375-.59375-1.019531-1.542968-.214844-1.296876.269531-2.855469 1.253906-4 3.925781-4.558594 5.503906-10.773438 4.234375-16.640626l-1.089844-4.964843c-1.089843-5.011719-4.082031-9.289063-8.40625-12.066407-4.316406-2.765624-9.453125-3.691406-14.453125-2.59375l-2.417968.53125c-.027344.007813-.050782 0-.078126.007813l-26.445312 5.785156-25.804688 5.632813c-5 1.09375-9.28125 4.074218-12.054687 8.40625-2.777344 4.316406-3.695313 9.460937-2.605469 14.460937l.539063 2.449219v.027344c0 .011718.011719.019531.011719.039062l.53125 2.441406c1.304687 6 5.476562 11.054688 11.144531 13.488282 1.40625.601562 2.578125 1.746094 2.984375 2.910156.234375.667969.097656 1.007812-.425782 1.875v.007812c-.890624 1.199219-1.855468 2.414063-2.835937 3.667969-.992187 1.261719-2.019531 2.585938-3.066406 3.957031-.351563.457032-.683594.933594-1.035157 1.402344-.75 1.019532-1.496093 2.054688-2.234374 3.136719-.40625.585937-.792969 1.191406-1.191407 1.804687-.683593 1.054688-1.34375 2.140626-1.992187 3.261719-.375.648438-.746094 1.289063-1.105469 1.960938-.679687 1.261719-1.289063 2.585937-1.894531 3.941406-.261719.574219-.539063 1.125-.773438 1.730469-.792968 1.960937-1.496094 4.015625-2.054687 6.179687-.089844.34375-.125.710938-.207031 1.0625-.433594 1.839844-.785157 3.738281-1.011719 5.722657-.085938.792968-.105469 1.621093-.160157 2.441406-.074218 1.0625-.207031 2.074218-.207031 3.179687-.039062-.042969-.074219-.089843-.109375-.132812-.125-.164063-.253906-.308594-.371094-.46875-1.566406-2.066407-3.136718-3.964844-4.710937-5.769531-.496094-.566407-1-1.113282-1.503906-1.65625-1.324219-1.429688-2.648438-2.773438-3.984375-4.035157-.429688-.40625-.863282-.847656-1.304688-1.246093-1.683594-1.503907-3.378906-2.882813-5.082031-4.109376-.476563-.339843-.964844-.628906-1.441406-.953124-1.28125-.859376-2.558594-1.652344-3.859375-2.351563-.628906-.34375-1.25-.675781-1.890625-.984375-1.34375-.65625-2.695313-1.214844-4.054688-1.703125-.449219-.160156-.902343-.378906-1.351562-.523437-1.476563-.46875-2.960938-.847657-4.457031-1.125-.171876-.035157-.34375-.019532-.515626-.042969-.304687-.054688-.601562-.171875-.910156-.21875-1.046875-.152344-2.039062-.089844-3.066406-.164063-.71875-.042968-1.429688-.195312-2.152344-.195312-.214844 0-.441406.054687-.664062.054687-1.398438.015625-2.75.179688-4.109375.347657-.675781.089843-1.351563.144531-2.027344.269531-1.777344.324219-3.496094.777343-5.199219 1.316406-.261718.082031-.515625.144531-.777344.234375-4.484374 1.523438-8.738281 3.679688-12.71875 6.28125-.820312-2.027344-1.253906-4.207031-1.253906-6.453125.011719-5.273437 2.355469-10.21875 6.433594-13.570313zm-57.890625 74.8125c3.8125-7.179687 13.066406-12.660156 29.132813-17.253906 7.515624-2.144531 14.488281-6.15625 20.148437-11.5625 2.566406-2.457031 4.972656-4.539062 7.296875-6.429687 7.261719-5.902344 13.523438-9.113281 19.191406-9.84375.128906-.015625.253906-.035157.378906-.042969 1.792969-.199219 3.53125-.144531 5.21875.152344.441407.082031.890626.234375 1.34375.351562.835938.207032 1.664063.414063 2.503907.75.539062.207032 1.078125.523438 1.628906.773438.78125.378906 1.558594.722656 2.34375 1.199218.613281.367188 1.222656.847657 1.835937 1.269532.730469.511718 1.460938.980468 2.199219 1.578125.683594.546875 1.371094 1.214843 2.054688 1.835937.683593.621094 1.371093 1.191406 2.054687 1.882813.757813.765625 1.523438 1.65625 2.289063 2.515625.621093.691406 1.242187 1.332031 1.875 2.082031.855469 1.027344 1.71875 2.195313 2.582031 3.332031.550781.722656 1.09375 1.371094 1.640625 2.136719.984375 1.371094 1.972656 2.890625 2.964844 4.40625.433593.664063.875 1.261719 1.304687 1.945313 1.433594 2.261718 2.875 4.667968 4.324219 7.226562 6.632813 11.703125 8.832031 28.992188 5.949219 44.050781-.480469-.046875-.949219-.117187-1.425782-.191406-3.433593-.585937-6.738281-1.683594-9.75-3.488281l-6.425781-3.855469c-7.386719-4.433594-15.667969-6.648437-23.949219-6.648437-.097656 0-.195312.015624-.304687.015624-8.378906-.054687-16.777344 2.136719-24.257813 6.632813l-3.125 1.875c-5.453124 3.269531-11.558593 4.917969-17.667968 4.972656-6.121094-.054687-12.21875-1.695312-17.667969-4.972656l-12.121094-7.28125s-.007812 0-.007812-.007813c-1.597657-.945312-3.316407-1.597656-5.082031-1.917968-1.414063-7.128906-.910157-12.894532 1.523437-17.488282zm332.488281 250.648438c-.910156 17.730469-15.53125 31.625-33.28125 31.625h-252.9375c-17.761718 0-32.375-13.894531-33.292968-31.796875l-14.996094-213.023437 7.839844 4.707031c8.496093 5.097656 18.039062 7.605469 27.554687 7.550781 9.523437.054688 19.054687-2.449219 27.550781-7.550781l3.128906-1.875c4.429688-2.667969 9.398438-3.984375 14.371094-4.039063 4.972656.054688 9.9375 1.371094 14.378906 4.039063l6.425782 3.855469c8.128906 4.875 17.335937 6.964843 26.4375 6.46875.808594-.035157 1.621094-.035157 2.441406-.105469.097656-.011719.191406-.066407.296875-.074219 6.152344-.691406 12.191406-2.628906 17.757813-5.800781.523437-.191407 1.082031-.199219 1.570312-.488281l6.425781-3.855469c4.429688-2.667969 9.394531-3.984375 14.371094-4.039063 4.972656.054688 9.9375 1.371094 14.378906 4.039063l6.425781 3.855469c6.820313 4.082031 14.410157 6.199218 22.039063 6.515624.152344.007813.316406.027344.46875.027344 2.628906.082032 5.261719 0 7.875-.371094 1.496094-.191406 2.945313-.566406 4.414063-.902343.710937-.167969 1.425781-.324219 2.128906-.53125 4-1.105469 7.917968-2.558594 11.566406-4.746094l6.425781-3.859375c4.433594-2.664062 9.398438-3.980469 14.371094-4.035156 4.972656.054687 9.941406 1.371094 14.382813 4.035156l6.425781 3.859375c7.441406 4.457031 15.792969 6.648437 24.136719 6.613281.136718 0 .277343.027344.414062.027344 8.09375 0 16.191406-2.109375 23.453125-6.34375l17.679687-7.859375c.378907-.167969.648438-.496094 1-.710937l1.378907-.613282zm0 0"/><path d="m54.070312 387.476562h63.074219c4.972657 0 9.011719-4.027343 9.011719-9.011718 0-4.980469-4.039062-9.011719-9.011719-9.011719h-63.074219c-4.972656 0-9.007812 4.03125-9.007812 9.011719 0 4.984375 4.035156 9.011718 9.007812 9.011718zm0 0"/><path d="m54.070312 423.519531h81.09375c4.976563 0 9.011719-4.027343 9.011719-9.011719 0-4.984374-4.035156-9.011718-9.011719-9.011718h-81.09375c-4.972656 0-9.007812 4.027344-9.007812 9.011718 0 4.984376 4.035156 9.011719 9.007812 9.011719zm0 0"/><path d="m153.183594 441.539062h-99.113282c-4.972656 0-9.007812 4.027344-9.007812 9.011719 0 4.980469 4.035156 9.007813 9.007812 9.007813h99.113282c4.972656 0 9.011718-4.027344 9.011718-9.007813 0-4.984375-4.039062-9.011719-9.011718-9.011719zm0 0"/><path d="m207.246094 441.539062h-18.019532c-4.976562 0-9.011718 4.027344-9.011718 9.011719 0 4.980469 4.035156 9.007813 9.011718 9.007813h18.019532c4.972656 0 9.011718-4.027344 9.011718-9.007813 0-4.984375-4.035156-9.011719-9.011718-9.011719zm0 0"/></g><g transform="matrix(0.11747932132977962 -0.03203981417454906 0.03203981417454906 0.11747932132977962 89.73893341059386 150.38926362815494)" id="L1_65"><path d="m370.769531 55.855469h-4.523437v-7.710938c0-16.269531-13.21875-29.507812-28.738282-29.507812-.007812 0-.019531 0-.042968 0l-270.703125-18.636719c-16.292969 0-29.53125 13.25-29.53125 29.519531v26.335938h-4.515625c-18.035156 0-32.714844 14.675781-32.714844 32.714843v41.753907c0 18.035156 14.675781 32.714843 32.714844 32.714843h1.027344l31.667968 319.441407c0 16.269531 13.238282 29.519531 29.527344 29.519531h214.109375c4.066406 0 7.949219-.828125 11.480469-2.3125 10.589844-4.4375 18.027344-14.742188 17.996094-26.140625l31.722656-320.519531h.535156c18.035156 0 32.714844-14.675782 32.714844-32.714844v-41.742188c-.011719-18.035156-14.691406-32.714843-32.726563-32.714843zm-311.730469-26.335938c0-4.253906 3.457032-7.710937 6.96875-7.730469l270.71875 18.636719c4.253907 0 7.71875 3.457031 7.71875 7.71875v7.710938h-285.40625zm280.402344 220.246094-58.550781 10.449219c-19.8125-23.128906-48.167969-36.269532-78.789063-36.269532-30.632812 0-58.984374 13.140626-78.800781 36.28125l-58.765625-10.46875-8.84375-86.71875h292.601563zm-1.910156 22.5-8.464844 85.667969-57.273437-10.542969-4.054688 5.386719c-15.726562 20.90625-39.648437 32.902344-65.625 32.902344-25.988281 0-49.914062-11.996094-65.636719-32.902344l-4.058593-5.375-57.46875 10.542968-8.484375-85.679687 65.976562 11.734375 4.035156-5.34375c15.726563-20.90625 39.652344-32.902344 65.636719-32.902344 25.976563 0 49.902344 11.996094 65.625 32.902344l4.035157 5.355469zm-28.496094 217.921875h-214.109375c-1.042969 0-2.046875-.214844-2.964843-.632812-2.757813-1.242188-4.753907-4.207032-4.796876-8.15625l-.140624-1.414063-9.78125-100.304687 46.085937-8.453126c19.8125 23.121094 48.15625 36.25 78.777344 36.25 30.609375 0 58.953125-13.128906 78.765625-36.238281l45.878906 8.441407-9.988281 102.800781c-.015625 4.175781-3.539063 7.707031-7.726563 7.707031zm72.640625-359.863281c0 6.019531-4.894531 10.90625-10.90625 10.90625h-338.054687c-6.007813 0-10.902344-4.886719-10.902344-10.90625v-41.753907c0-6.019531 4.894531-10.90625 10.902344-10.90625h338.054687c6.011719 0 10.90625 4.886719 10.90625 10.90625zm0 0"/><path d="m201.742188 261.71875c-33.074219 0-59.976563 24.460938-59.976563 54.523438 0 30.066406 26.902344 54.527343 59.976563 54.527343 33.074218 0 59.980468-24.460937 59.980468-54.527343 0-30.0625-26.917968-54.523438-59.980468-54.523438zm0 87.242188c-21.046876 0-38.167969-14.679688-38.167969-32.71875 0-18.035157 17.121093-32.714844 38.167969-32.714844 21.046874 0 38.167968 14.679687 38.167968 32.714844 0 18.039062-17.132812 32.71875-38.167968 32.71875zm0 0"/></g><g transform="matrix(0.13294027656005725 0.04013291491238745 -0.04013291491238745 0.13294027656005725 106.87904193982686 249.66217681504543)" id="L1_66"><path d="m362.855469 155.792969c-37.246094-29.304688-90.003907-21.191407-131.796875-10.847657-6.722656 1.667969-13.617188 2.476563-20.527344 2.777344-1.097656-5.519531-2.464844-11.054687-4.136719-16.546875l32.300781-4.8125c41.371094-6.15625 73.316407-38.101562 79.476563-79.472656l4.765625-32.015625c.414062-1.113281.570312-2.273438.511719-3.449219l1.691406-11.425781-46.890625 6.980469c-41.371094 6.167969-73.316406 38.101562-79.476562 79.476562l-2.808594 18.882813c-9.585938-18.398438-23.375-34.496094-42.394532-44.644532-4.230468-2.257812-9.453124-.648437-11.710937 3.5625-2.25 4.222657-.652344 9.457032 3.5625 11.707032 26.40625 14.078125 40.972656 42.566406 47.339844 71.195312-4.039063-.507812-8.042969-1.21875-11.996094-2.203125-41.796875-10.347656-94.570313-18.46875-131.800781 10.847657-33.351563 26.25-49.375 78.210937-48.9570315 158.84375.3046875 59.574218 34.6093755 128.296874 83.4296875 167.125 32.238281 25.648437 66.90625 35.257812 100.199219 27.742187 14.582031-3.289063 29.964843-3.289063 44.539062 0 7.371094 1.660156 14.792969 2.480469 22.238281 2.480469 26.261719 0 52.84375-10.242188 77.960938-30.222656 48.820312-38.835938 83.117188-107.558594 83.429688-167.125.421874-80.644532-15.59375-132.601563-48.949219-158.855469zm-126.714844-46.542969-7.585937 1.132812 73.621093-73.621093-1.132812 7.585937c-5.015625 33.785156-31.105469 59.875-64.902344 64.902344zm44.660156-85.152344 11.253907-1.675781-77.839844 77.839844 1.679687-11.261719c5.023438-33.785156 31.113281-59.867188 64.90625-64.902344zm36.8125 444.136719c-19.511719 15.535156-50.183593 32.40625-85.625 24.394531-8.527343-1.917968-17.300781-2.878906-26.078125-2.878906-8.769531 0-17.542968.960938-26.070312 2.878906-35.371094 7.992188-66.113282-8.855468-85.625-24.394531-44.28125-35.230469-76.621094-99.851563-76.898438-153.679687-.390625-74.953126 13.46875-122.433594 42.351563-145.164063 24.460937-19.246094 60.546875-21.597656 116.953125-7.648437 6.265625 1.550781 12.65625 2.40625 19.082031 2.941406.492187 4.429687.820313 8.796875.960937 13.039062.144532 4.675782 3.988282 8.371094 8.632813 8.371094h.277344c4.78125-.15625 8.519531-4.144531 8.371093-8.917969-.128906-4.003906-.441406-8.132812-.863281-12.300781 7.449219-.433594 14.867188-1.332031 22.125-3.121094 56.40625-13.945312 92.484375-11.589844 116.957031 7.644532 28.890626 22.734374 42.738282 70.222656 42.351563 145.171874-.269531 53.800782-32.621094 118.433594-76.902344 153.664063zm0 0"/><path d="m121.105469 174.625c-42.925781 0-77.847657 38.804688-77.847657 86.496094 0 4.777344 3.867188 8.652344 8.648438 8.652344 4.785156 0 8.652344-3.875 8.652344-8.652344 0-38.152344 27.167968-69.199219 60.546875-69.199219 4.785156 0 8.652343-3.875 8.652343-8.648437 0-4.773438-3.867187-8.648438-8.652343-8.648438zm0 0"/><path d="m230.78125 177.160156c-7.023438 7.023438-16.347656 10.890625-26.253906 10.890625-9.902344 0-19.246094-3.867187-26.261719-10.890625-3.382813-3.382812-8.847656-3.382812-12.230469 0-3.378906 3.382813-3.382812 8.855469 0 12.230469 10.285156 10.28125 23.96875 15.957031 38.492188 15.957031 14.523437 0 28.199218-5.664062 38.484375-15.957031 3.382812-3.382813 3.382812-8.859375 0-12.230469-3.382813-3.382812-8.851563-3.382812-12.230469 0zm0 0"/></g><path d="m398.222656 191.820312h-47.40625v-68.5625c0-1.914062-.714844-3.59375-1.6875-5.082031 1.003906-4.597656 1.6875-9.222656 1.6875-13.878906 0-36.589844-29.78125-66.371094-66.371094-66.371094-11.273437 0-22.121093 2.796875-31.839843 8.164063-12.390625-16.953125-32.085938-27.125-53.496094-27.125-6.761719 0-13.378906 1.003906-19.769531 3.011718-13.394532-14.039062-31.75-21.976562-51.339844-21.976562-30.320312 0-57.230469 19.539062-67.101562 47.578125-1.355469-.113281-2.683594-.171875-4.007813-.171875-31.375 0-56.890625 25.515625-56.890625 56.890625v75.851563c0 15.679687 12.761719 28.445312 28.445312 28.445312h9.484376c3.335937 0 6.503906-.683594 9.480468-1.746094v248.265625c0 31.375 25.515625 56.886719 56.886719 56.886719h189.632813c31.371093 0 56.886718-25.511719 56.886718-56.886719v-35.738281h47.40625c26.140625 0 47.40625-21.265625 47.40625-47.40625v-132.738281c0-26.132813-21.265625-47.410157-47.40625-47.410157zm-123.261718 244.328126h-37.921876v-189.628907c0-10.460937 8.503907-18.964843 18.960938-18.964843 10.460938 0 18.964844 8.503906 18.964844 18.964843v189.628907zm-18.960938-227.554688c-11.386719 0-21.484375 5.140625-28.445312 13.101562-6.957032-7.960937-17.054688-13.101562-28.445313-13.101562-11.386719 0-21.484375 5.140625-28.445313 13.101562-6.957031-7.960937-17.054687-13.101562-28.445312-13.101562-11.386719 0-21.484375 5.140625-28.445312 13.101562-6.957032-7.960937-17.054688-13.101562-28.445313-13.101562-6.9375 0-13.359375 2.011719-18.960937 5.269531v-34.863281c3.335937.761719 6.722656 1.148438 10.117187 1.148438h18.65625c10.6875 0 20.859375-3.632813 29.128906-10.210938 12.390625 12.476562 29.308594 19.695312 47.027344 19.695312 33.382813 0 61.078125-24.765624 65.695313-56.890624h94.855468v81.125c-5.605468-3.261719-12.023437-5.273438-18.964844-5.273438-11.386718 0-21.484374 5.140625-28.445312 13.105469-6.953125-7.96875-17.050781-13.105469-28.4375-13.105469zm-37.925781 227.554688h-37.925781v-189.628907c0-10.460937 8.503906-18.964843 18.964843-18.964843 10.457031 0 18.960938 8.503906 18.960938 18.964843zm-56.890625 0h-37.921875v-189.628907c0-10.460937 8.503906-18.964843 18.960937-18.964843 10.460938 0 18.964844 8.503906 18.964844 18.964843v189.628907zm-56.886719 0h-37.925781v-189.628907c0-10.460937 8.503906-18.964843 18.964844-18.964843 10.457031 0 18.960937 8.503906 18.960937 18.964843zm189.628906-189.628907c0-10.460937 8.503907-18.964843 18.964844-18.964843 10.457031 0 18.960937 8.503906 18.960937 18.964843v189.628907h-37.921874v-189.628907zm56.890625 2.1875h28.445313c5.230469 0 9.480469 4.25 9.480469 9.484375v94.8125c0 5.234375-4.25 9.480469-9.480469 9.480469h-28.445313zm-312.890625-59.078125h-9.480469c-5.234374 0-9.484374-4.246094-9.484374-9.480468v-75.851563c0-20.917969 17.011718-37.925781 37.925781-37.925781 2.664062 0 5.5.359375 8.667969 1.109375 2.523437.585937 5.109374.152343 7.25-1.222657 2.164062-1.375 3.671874-3.546874 4.203124-6.039062 5.070313-23.90625 26.519532-41.253906 50.988282-41.253906 16.082031 0 31.035156 7.308594 41.015625 20.03125 2.664062 3.386718 7.28125 4.589844 11.246093 2.847656 5.992188-2.597656 12.335938-3.917969 18.851563-3.917969 17.804687 0 33.941406 9.871094 42.125 25.753907 1.289063 2.5 3.621094 4.304687 6.371094 4.917968 2.769531.597656 5.644531-.035156 7.863281-1.761718 8.410156-6.515626 18.429688-9.945313 28.972656-9.945313 26.140625 0 47.410156 21.265625 47.410156 47.40625 0 3.167969-.335937 6.339844-.988281 9.480469h-102.671875c-5.246094 0-9.484375 4.238281-9.484375 9.480468 0 26.140626-21.265625 47.410157-47.40625 47.410157-15.273437 0-29.742187-7.546875-38.683593-20.1875-1.734376-2.445313-4.511719-3.925781-7.507813-4-3.128906-.070313-5.851563 1.269531-7.691406 3.632812-5.519531 7.03125-13.644531 11.074219-22.269531 11.074219h-18.660157c-5.101562 0-10.042969-1.433594-14.660156-4.257812-2.929687-1.78125-6.578125-1.839844-9.585937-.179688-2.984376 1.679688-4.835938 4.84375-4.835938 8.269531v15.132813c0 5.230468-4.246094 9.476562-9.480469 9.476562zm256 303.40625h-189.628906c-20.914063 0-37.925781-17.007812-37.925781-37.925781h265.480468c0 20.917969-17.011718 37.925781-37.925781 37.925781zm132.742188-121.066406c0 15.679688-12.761719 28.445312-28.445313 28.445312h-47.40625v-18.964843h28.445313c15.679687 0 28.445312-12.761719 28.445312-28.445313v-94.8125c0-15.683594-12.761719-28.445312-28.445312-28.445312h-28.445313v-18.964844h47.40625c15.679688 0 28.445313 12.761719 28.445313 28.445312zm0 0" transform="matrix(0.11718711256980896 0 0 0.11718711256980896 213.99999989746175 34)" id="L1_67"/><g transform="matrix(0.1171875 0 0 0.1171875 308 50.999999956054694)" id="L1_68"><path d="m512 141.976562c0-16.632812-16.710938-30.230468-43.023438-35.917968v-28.621094c0-.550781-.042968-1.089844-.113281-1.683594l.007813-.214844c.054687-.800781.105468-1.59375.105468-2.394531 0-40.332031-32.8125-73.14062475-73.144531-73.14062475-2.304687 0-4.601562.12890575-6.890625.35156275-1.128906.105469-2.230468.292969-3.339844.457031-1.085937.15625-2.175781.292969-3.253906.5-1.417968.265625-2.804687.601562-4.199218.953125-.714844.183594-1.425782.355469-2.132813.550781-1.558594.441406-3.082031.941406-4.585937 1.472656-.507813.183594-1.015626.363282-1.515626.558594-1.601562.613282-3.175781 1.265625-4.722656 1.988282-.398437.183593-.785156.378906-1.171875.570312-1.601562.773438-3.164062 1.589844-4.695312 2.476562-.328125.1875-.648438.398438-.964844.585938-1.558594.9375-3.089844 1.902344-4.570313 2.941406-.285156.199219-.550781.414063-.824218.621094-1.5 1.09375-2.976563 2.210938-4.390625 3.40625-.015625.019531-.042969.035156-.0625.054688-13.164063-11.1875-29.988281-17.4687505-47.328125-17.4687505-2.304688 0-4.601563.1289065-6.890625.3515625-1.128907.105469-2.230469.292969-3.339844.457031-1.085937.15625-2.175781.292969-3.253906.5-1.417969.265625-2.804688.601563-4.199219.953125-.714844.183594-1.429688.355469-2.132812.554688-1.558594.4375-3.082032.9375-4.585938 1.46875-.507812.183594-1.019531.363281-1.515625.558594-1.601563.613281-3.175781 1.265624-4.722656 1.988281-.398438.183593-.785157.378906-1.171875.570312-1.601563.773438-3.167969 1.589844-4.695313 2.476563-.328125.191406-.648437.398437-.964843.585937-1.558594.9375-3.089844 1.902344-4.570313 2.941407-.285156.199218-.550781.414062-.828125.621093-1.496094 1.09375-2.976562 2.210938-4.386719 3.40625-.015625.019531-.042969.035157-.0625.054688-11.753906-9.992188-26.433593-16.03125-41.785156-17.21875-.421875-.0625-.800781-.2500002-1.238281-.2500002-.6875 0-1.351563.0859372-2.03125.1015622-.773438-.066406-1.523438-.144531-2.289063-.144531-17.339843 0-34.164062 6.28125-47.328125 17.46875-13.167968-11.1875-29.988281-17.46875-47.328125-17.46875-40.332031 0-73.144531 32.8125-73.144531 73.144531 0 .808594.054688 1.597657.105469 2.390625l.007812.207032c-.066406.558593-.109375 1.125-.109375 1.703124v29.667969c-23.707031 6.25-38.722656 19.449219-38.722656 34.863281 0 15.917969 15.445312 28.980469 38.757812 35.046876.332032 40.039062 32.992188 72.515624 73.109376 72.515624h283.964843c39.765625 0 72.160157-31.917968 73.058594-71.472656 25.734375-5.507812 43.109375-19.191406 43.109375-36.089844zm-456.066406-68.839843c0-30.839844 25.089844-55.933594 55.929687-55.933594 14.398438 0 27.796875 5.429687 38.207031 15.265625-7.820312 11.632812-12.390624 25.625-12.390624 40.667969 0 4.757812 3.847656 8.605469 8.605468 8.605469 4.757813 0 8.605469-3.847657 8.605469-8.605469 0-30.109375 23.9375-54.679688 53.773437-55.824219 12.417969.464844 24.007813 4.933594 33.464844 12.839844-8.820312 12.082031-14.09375 26.917968-14.09375 42.984375 0 4.757812 3.84375 8.605469 8.601563 8.605469 4.761719 0 8.605469-3.847657 8.605469-8.605469 0-14.707031 5.75-28.070313 15.070312-38.070313 1.1875-1.273437 2.425781-2.46875 3.699219-3.613281.199219-.171875.378906-.355469.574219-.527344 1.121093-.980469 2.289062-1.882812 3.46875-2.761719.40625-.300781.800781-.621093 1.210937-.902343.9375-.664063 1.910156-1.246094 2.882813-1.84375.679687-.410157 1.351562-.859375 2.058593-1.246094.6875-.378906 1.402344-.703125 2.097657-1.058594.988281-.492187 1.972656-1.007812 2.996093-1.445312.421875-.179688.867188-.320313 1.296875-.492188 1.300782-.515625 2.601563-1.023437 3.941406-1.445312.199219-.058594.40625-.101563.613282-.160157 1.5625-.476562 3.148437-.894531 4.773437-1.234374.136719-.023438.277344-.03125.414063-.066407 1.683594-.335937 3.390625-.601562 5.117187-.785156 1.894531-.1875 3.804688-.289063 5.734375-.289063 13.222656 0 25.605469 4.574219 35.605469 12.949219-8.820313 12.082031-14.09375 26.917969-14.09375 42.984375 0 4.757813 3.84375 8.605469 8.605469 8.605469 4.757812 0 8.605468-3.847656 8.605468-8.605469 0-14.707031 5.746094-28.070312 15.066407-38.070312 1.1875-1.273438 2.425781-2.46875 3.699219-3.613282.199218-.171874.378906-.355468.574218-.527343 1.121094-.980469 2.292969-1.882813 3.46875-2.761719.402344-.300781.800782-.617188 1.210938-.902344.941406-.664062 1.914062-1.246094 2.882812-1.839844.679688-.414062 1.351563-.863281 2.058594-1.25.6875-.378906 1.402344-.703124 2.097656-1.058593.992188-.488281 1.972656-1.007813 2.996094-1.445313.421875-.179687.871094-.316406 1.296875-.492187 1.300781-.515625 2.601563-1.023438 3.941406-1.445313.199219-.058594.40625-.101562.613281-.160156 1.566407-.476562 3.148438-.894531 4.773438-1.230469.136719-.027343.277344-.035156.414062-.070312 1.6875-.335938 3.390626-.601563 5.121094-.78125 1.890625-.191407 3.800782-.292969 5.730469-.292969 30.839844 0 55.929687 25.089844 55.929687 55.929688v37.96875l-.117187 1.203124c-.011719.179688-.085937.34375-.105469.527344-.109375.980469-.335937 1.933594-.746094 2.785156-.011718.019532-.019531.027344-.027343.035157-.464844.9375-1.085938 1.78125-1.832031 2.488281-.085938.078125-.191407.109375-.277344.1875-.695313.613281-1.460938 1.144531-2.324219 1.5-.988281.394531-2.0625.644531-3.191406.644531h-378.628907c-1.121093 0-2.1875-.25-3.167968-.636719-.578125-.234374-1.058594-.621093-1.566406-.972656-.335938-.230468-.707032-.402344-1.007813-.679687-.574219-.53125-1.042969-1.1875-1.453125-1.875-.121094-.1875-.277344-.359375-.378906-.558594-.371094-.730469-.585938-1.546875-.742188-2.390625-.066406-.386719-.214844-.75-.234375-1.152344l-.058593-.570312v-33.929688l.164062-1.488281zm356.273437 72.074219c-.058593.128906-.085937.257812-.152343.386718-.484376.929688-1.242188 1.875-2.058594 2.824219-.464844.523437-.980469 1.046875-1.550782 1.566406-.601562.558594-1.273437 1.109375-1.984374 1.652344-1.128907.851563-2.386719 1.683594-3.761719 2.488281-.414063.238282-.828125.480469-1.257813.714844-.871094.472656-1.765625.925781-2.710937 1.375-5.042969 2.339844-10.875 4.15625-17.191407 5.386719-.027343 0-.042968.007812-.070312.007812-3.050781.59375-6.21875 1.042969-9.464844 1.351563-3.363281.308594-6.867187.515625-10.574218.515625-2.597657 0-5.171876-.117188-7.710938-.300781-.695312-.050782-1.382812-.109376-2.082031-.179688-2.003907-.183594-3.976563-.414062-5.917969-.707031-.550781-.085938-1.117188-.144531-1.671875-.238281-2.410156-.398438-4.757813-.871094-7.019531-1.429688-.421875-.105469-.808594-.222656-1.222656-.335938-1.839844-.480468-3.621094-1.015624-5.34375-1.601562-.316407-.109375-.636719-.222656-.945313-.335938 1.953125-2.476562 3.484375-5.09375 4.507813-7.847656.011718-.015625.019531-.042968.027343-.058594.472657-1.273437.835938-2.574218 1.085938-3.898437.023437-.113281.058593-.214844.085937-.328125.230469-1.378906.378906-2.796875.378906-4.242188 0-1.457031-.136718-2.882812-.40625-4.300781h76.292969c.128907.207031.351563.425781.464844.625.109375.214844.207031.421875.300781.628907.472656 1.042968.792969 2.066406.792969 3.046874-.003906 1.039063-.332031 2.125-.839844 3.234376zm-155.132812 17.804687c-.738281-.070313-1.46875-.128906-2.203125-.214844-3.078125-.335937-6.089844-.765625-8.972656-1.351562-.335938-.070313-.65625-.164063-.992188-.234375-2.605469-.558594-5.101562-1.230469-7.484375-1.976563-.597656-.191406-1.207031-.371093-1.78125-.570312-2.523437-.859375-4.90625-1.816407-7.082031-2.882813-.128906-.058594-.234375-.128906-.363282-.195312.0625-.085938.09375-.183594.148438-.269532.523438-.851562 1.003906-1.710937 1.433594-2.597656.191406-.386718.347656-.792968.519531-1.179687.308594-.722657.609375-1.453125.84375-2.203125.207031-.625.332031-1.273438.488281-1.910156.128906-.558594.292969-1.109376.378906-1.675782.207032-1.25.328126-2.507812.328126-3.78125 0-1.445312-.136719-2.871094-.414063-4.300781h84.804687c.207032.320313.566407.664063.730469.972656.007813.015625.015625.035157.027344.050781.59375 1.144532.902344 2.246094.902344 3.277344 0 1.007813-.328125 2.066406-.808594 3.144532-.207031.445312-.535156.910156-.828125 1.367187-.367188.582031-.78125 1.167969-1.289062 1.761719-.523438.613281-1.101563 1.214844-1.753907 1.808594-.421875.386718-.914062.773437-1.394531 1.160156-.886719.707031-1.78125 1.421875-2.839844 2.09375-2.324218 1.480468-4.988281 2.796875-7.890625 3.984375-.4375.179687-.894531.359375-1.351562.53125-2.753907 1.058593-5.714844 1.972656-8.835938 2.753906-.300781.078125-.574219.164063-.886719.234375-1.507812.351562-3.054687.660156-4.621093.945312-2.183594.394532-4.398438.765626-6.773438 1.03125-.859375.097657-1.753906.148438-2.632812.226563-3.125.265625-6.316407.472656-9.722657.472656-3.289062 0-6.507812-.199219-9.683593-.472656zm-101.289063.171875c-.695312-.050781-1.382812-.113281-2.082031-.183594-2.003906-.179687-3.976563-.410156-5.917969-.703125-.550781-.085937-1.117187-.148437-1.671875-.242187-2.410156-.394532-4.757812-.867188-7.019531-1.429688-.421875-.101562-.808594-.222656-1.222656-.332031-1.839844-.484375-3.621094-1.019531-5.34375-1.601563-.316406-.113281-.636719-.226562-.945313-.335937 1.953125-2.480469 3.484375-5.09375 4.507813-7.847656.011718-.015625.019531-.042969.027344-.0625.472656-1.273438.835937-2.570313 1.085937-3.898438.023437-.109375.058594-.214843.082031-.328125.25-1.382812.398438-2.804687.398438-4.25 0-1.453125-.136719-2.882812-.402344-4.300781h76.230469c.171875.273437.472656.558594.621093.824219.050782.105468.09375.207031.144532.300781.535156 1.101563.851562 2.171875.851562 3.175781 0 .996094-.328125 2.054688-.808594 3.125-.15625.335938-.34375.652344-.535156.980469-.4375.757813-1.003906 1.523437-1.667968 2.289063-.523438.59375-1.050782 1.128906-1.609376 1.636718-.472656.4375-1.023437.867188-1.566406 1.296875-.960937.757813-1.953125 1.5-3.070312 2.195313-.277344.171875-.613282.34375-.902344.515625-2.367188 1.402343-5.035156 2.667969-7.945312 3.785156-.453126.179687-.875.371094-1.351563.542969-1.433594.515625-2.957031.980468-4.5 1.429687-.875.257813-1.796875.488281-2.71875.722657-1.824219.457031-3.683594.878906-5.617187 1.238281-2.074219.378906-4.203126.722656-6.445313.980469-1.078125.128906-2.171875.214843-3.253906.308593-3.097657.257813-6.257813.476563-9.636719.476563-2.601562-.007813-5.175781-.128906-7.714844-.308594zm-138.574218-21.210938c0-5.792968 8.570312-13.519531 24.617187-17.996093.136719.257812.308594.484375.457031.734375.429688.738281.851563 1.480468 1.351563 2.167968.695312.972657 1.453125 1.894532 2.269531 2.753907.457031.472656.945312.894531 1.4375 1.335937.621094.558594 1.265625 1.089844 1.9375 1.601563.472656.351562.9375.703125 1.445312 1.023437 1.144532.730469 2.332032 1.402344 3.585938 1.953125.292969.128907.601562.207031.90625.324219 1.117188.441406 2.269531.800781 3.457031 1.078125.421875.101563.84375.195313 1.285157.273437 1.480468.257813 3 .449219 4.578124.449219h54.269532c.207031.316407.570312.664063.730468.972657.011719.015624.019532.035156.027344.050781.59375 1.144531.902344 2.246093.902344 3.277343 0 1.007813-.328125 2.066407-.808594 3.140626-.207031.449218-.53125.914062-.824218 1.371093-.371094.582031-.785157 1.167969-1.292969 1.761719-.523438.609375-1.101563 1.214844-1.753907 1.808594-.421874.386718-.910156.773437-1.394531 1.160156-.886719.707031-1.78125 1.421875-2.839843 2.09375-8.628907 5.480469-21.8125 8.949219-35.847657 9.851562-.714843.042969-1.429687.078126-2.160156.101563-2.289063.105469-4.585937.164063-6.890625.121094-1.121094-.015625-2.160156-.101563-3.253906-.15625-4.886719-.222657-9.757813-.695313-14.457032-1.597657l-2.898437-.5625c-18.210937-4.070312-28.835937-12.511718-28.835937-19.09375zm434.40625 38.4375c-2.066407 28.972657-26.304688 51.914063-55.785157 51.914063h-283.964843c-29.613282 0-53.929688-23.132813-55.8125-52.277344 2.390624.234375 4.84375.398438 7.332031.5.816406.035157 1.632812.042969 2.460937.070313.996094.015625 1.980469.078125 2.996094.078125.78125 0 1.53125-.054688 2.304688-.0625.800781-.015625 1.601562-.035157 2.402343-.0625 2.355469-.085938 4.679688-.222657 6.949219-.421875h.027344c13.898437-1.238282 26.132812-4.636719 35.695312-9.636719.039063.027344.09375.035156.136719.0625 2.820313 1.453125 5.902344 2.734375 9.121094 3.894531.507812.183594.996093.382813 1.511719.554688 3.183593 1.082031 6.53125 2.011718 10.015624 2.796875.613282.136719 1.222657.265625 1.835938.386719 3.542969.730468 7.191406 1.332031 10.953125 1.738281.515625.058593 1.042969.082031 1.554687.136719 3.976563.378906 8.011719.625 12.125.625 21.050782 0 39.257813-4.816407 51.675782-12.65625 1.632812 1.023437 3.378906 1.996093 5.203125 2.910156.492187.25 1.035156.453125 1.542969.695312 1.480468.699219 2.984374 1.378906 4.558593 1.996094.773438.304688 1.582031.578125 2.375.863281 1.394531.5 2.808594.988281 4.269531 1.4375.894532.273438 1.804688.515625 2.726563.765625 1.445313.394532 2.910156.765625 4.40625 1.101563.964844.214843 1.925781.421875 2.910156.617187 1.546875.3125 3.121094.570313 4.714844.820313.964844.144531 1.917969.300781 2.890625.429687 1.753906.222656 3.539062.386719 5.335938.542969.851562.066406 1.695312.171875 2.554687.222656 2.667969.171875 5.371094.265625 8.097656.265625 18.734375 0 35.222657-3.828125 47.390625-10.195312.039063.023437.09375.035156.136719.058594 2.820313 1.457031 5.902344 2.738281 9.121094 3.898437.507812.183594.996093.378906 1.511719.550781 3.183593 1.085938 6.53125 2.015625 10.019531 2.796875.609375.136719 1.21875.269531 1.832031.386719 3.542969.734375 7.191406 1.335938 10.953125 1.738281.515625.0625 1.042969.085938 1.554687.136719 3.976563.382812 8.011719.628906 12.125.628906 3.582032 0 7.046876-.179687 10.457032-.453125.328125-.027343.644531-.054687.96875-.078125 11.09375-.964844 21.136718-3.296875 29.613281-6.738281.851563.34375 1.839844.566406 2.726563.886719 2.015624.730468 4.046874 1.410156 6.179687 2.019531 1.566406.449219 3.148437.84375 4.773437 1.222656 2.238282.527344 4.5.972657 6.832032 1.359375 1.703125.285156 3.402344.542969 5.148437.757813 2.324219.285156 4.65625.472656 7.03125.628906 1.855469.121094 3.6875.230469 5.566407.265625.824218.015625 1.625.121094 2.460937.121094 2.847656 0 5.636719-.113282 8.382813-.285156.042968-.015626.070312-.015626.09375-.015626zm5.5-17.871093c-1.335938.171875-2.667969.335937-4.007813.453125-2.925781.257812-5.945313.421875-9.128906.449218-.84375.007813-1.679688-.035156-2.523438-.042968-2.488281-.035156-4.9375-.171875-7.363281-.371094-.964844-.082031-1.9375-.136719-2.882812-.238281-2.824219-.308594-5.574219-.757813-8.253907-1.285157-.429687-.082031-.84375-.1875-1.273437-.28125.011718-.007812.011718-.007812.019531-.015624 1.296875-1.335938 2.476563-2.710938 3.492187-4.148438.230469-.320312.394532-.65625.609376-.980469.699218-1.058593 1.324218-2.144531 1.859374-3.246093.257813-.527344.472657-1.058594.6875-1.59375.414063-1.003907.742188-2.039063 1.015626-3.078126.128906-.5.285156-.992187.386718-1.496093.304688-1.535157.5-3.089844.5-4.691407 0-1.445312-.136718-2.882812-.402344-4.300781h13.3125c1.554688 0 3.078126-.191406 4.570313-.464843.507813-.085938.996094-.214844 1.496094-.335938.964843-.242188 1.902343-.535156 2.824219-.878906.550781-.199219 1.101562-.378906 1.625-.621094 1.15625-.523438 2.265624-1.117188 3.320312-1.804688.734375-.464843 1.394531-1.007812 2.066406-1.539062.398438-.308594.785156-.621094 1.164063-.957031.703125-.628907 1.367187-1.273438 2.003906-1.96875.199219-.214844.371094-.449219.558594-.671875 1.359375-1.609375 2.523437-3.359375 3.460937-5.257813.035156-.0625.078125-.121093.101563-.183593 17.949219 4.125 28.441406 12.425781 28.441406 18.984374-.007813 7.578126-14.101563 17.597657-37.679687 20.566407zm0 0"/><path d="m111.867188 197.90625c0 4.753906-3.855469 8.605469-8.605469 8.605469-4.753907 0-8.605469-3.851563-8.605469-8.605469 0-4.75 3.851562-8.605469 8.605469-8.605469 4.75 0 8.605469 3.855469 8.605469 8.605469zm0 0"/><path d="m154.890625 215.117188c0 4.753906-3.851563 8.605468-8.605469 8.605468s-8.605468-3.851562-8.605468-8.605468c0-4.75 3.851562-8.605469 8.605468-8.605469s8.605469 3.855469 8.605469 8.605469zm0 0"/><path d="m189.3125 197.90625c0 4.753906-3.851562 8.605469-8.605469 8.605469-4.753906 0-8.605469-3.851563-8.605469-8.605469 0-4.75 3.851563-8.605469 8.605469-8.605469 4.753907 0 8.605469 3.855469 8.605469 8.605469zm0 0"/><path d="m215.125 215.117188c0 4.753906-3.851562 8.605468-8.605469 8.605468-4.75 0-8.605469-3.851562-8.605469-8.605468 0-4.75 3.855469-8.605469 8.605469-8.605469 4.753907 0 8.605469 3.855469 8.605469 8.605469zm0 0"/><path d="m249.546875 197.90625c0 4.753906-3.851563 8.605469-8.605469 8.605469s-8.605468-3.851563-8.605468-8.605469c0-4.75 3.851562-8.605469 8.605468-8.605469s8.605469 3.855469 8.605469 8.605469zm0 0"/><path d="m283.964844 215.117188c0 4.753906-3.851563 8.605468-8.601563 8.605468-4.753906 0-8.605469-3.851562-8.605469-8.605468 0-4.75 3.851563-8.605469 8.605469-8.605469 4.75 0 8.601563 3.855469 8.601563 8.605469zm0 0"/><path d="m318.386719 189.300781c0 4.753907-3.851563 8.605469-8.605469 8.605469s-8.605469-3.851562-8.605469-8.605469c0-4.75 3.851563-8.601562 8.605469-8.601562s8.605469 3.851562 8.605469 8.601562zm0 0"/><path d="m344.203125 215.117188c0 4.753906-3.855469 8.605468-8.605469 8.605468-4.753906 0-8.605468-3.851562-8.605468-8.605468 0-4.75 3.851562-8.605469 8.605468-8.605469 4.75 0 8.605469 3.855469 8.605469 8.605469zm0 0"/><path d="m387.226562 197.90625c0 4.753906-3.851562 8.605469-8.605468 8.605469-4.75 0-8.605469-3.851563-8.605469-8.605469 0-4.75 3.855469-8.605469 8.605469-8.605469 4.753906 0 8.605468 3.855469 8.605468 8.605469zm0 0"/><path d="m421.648438 206.511719c0 4.753906-3.855469 8.605469-8.605469 8.605469-4.753907 0-8.605469-3.851563-8.605469-8.605469 0-4.75 3.851562-8.605469 8.605469-8.605469 4.75 0 8.605469 3.855469 8.605469 8.605469zm0 0"/></g><path d="m463.328125 1.65625c-4.480469-3.003906-10.578125-1.8125-13.585937 2.683594l-35.078126 52.375c-36.597656-15.621094-96.929687-24.332032-156.015624-24.332032-38.839844 0-76.101563 3.726563-108.628907 10.570313-15.011719-20.800781-39.382812-34.414063-66.9375-34.414063-45.535156 0-82.582031 37.046876-82.582031 82.589844 0 45.542969 37.046875 82.59375 82.582031 82.59375 9.179688 0 18.164063-1.558594 26.820313-4.550781 7.605468 10.667969 15.882812 21.867187 24.539062 33.277344.839844 1.859375 2.171875 3.582031 3.941406 5.179687 32.8125 42.917969 69.78125 87.632813 92.460938 114.605469 5.988281 7.136719 14.046875 11.960937 22.914062 13.949219v107.414062c-31.324218.695313-107.667968 5.335938-107.667968 34.140625 0 32.605469 97.839844 34.261719 117.457031 34.261719 19.613281 0 117.457031-1.65625 117.457031-34.261719 0-28.804687-76.347656-33.445312-107.671875-34.140625v-107.785156c8.722657-2.230469 16.570313-7.164062 22.328125-14.367188 34.582032-43.234374 63.25-80.578124 86.234375-112.222656 2.621094-2.164062 4.335938-4.542968 5.195313-7.164062 38.105468-53.054688 58.847656-88.71875 61.941406-106.574219.3125-1.417969.5-2.867187.5-4.375 0-9.417969-6.402344-17.851563-17.441406-25.207031l33.933594-50.660156c2.992187-4.492188 1.792968-10.570313-2.695313-13.585938zm-303.496094 59.121094c29.644531-5.71875 64.230469-8.820313 98.820313-8.820313 66.375 0 116.488281 10.550781 144.875 21.394531l-25.546875 38.148438c-27.457031 5.097656-66.570313 8.972656-119.328125 8.972656-35.390625 0-68.46875-1.878906-96.539063-5.488281.207031-.667969.273438-1.351563.460938-2.019531.695312-2.503906 1.261719-5.039063 1.714843-7.59375.195313-1.105469.417969-2.203125.566407-3.320313.488281-3.609375.800781-7.242187.800781-10.921875 0-2.683594-.144531-5.34375-.398438-8.007812-.148437-1.625-.433593-3.210938-.6875-4.816406-.15625-.96875-.253906-1.945313-.449218-2.914063-.390625-2.027344-.910156-4.015625-1.449219-5.992187-.136719-.5-.242187-1.015626-.390625-1.515626-.636719-2.164062-1.378906-4.269531-2.183594-6.34375-.101562-.246093-.171875-.507812-.265625-.761718zm216.394531 122.722656c-4.492187-2.347656-10.542968-4.550781-18.570312-6.480469l32.058594-47.855469c9.847656-2.082031 19.035156-4.570312 27.140625-7.527343-8.640625 15.066406-21.855469 35.433593-40.628907 61.863281zm-30.363281 11.128906c6.316407 1.066406 11.523438 2.191406 15.464844 3.328125-4.941406 1.585938-12.117187 3.242188-20.886719 4.777344zm-31.300781 11.539063c-14.652344 1.441406-31.714844 2.398437-51.015625 2.398437-45.253906 0-84.484375-5.429687-102.367187-10.589844 17.082031-4.460937 54.003906-8.984374 102.367187-8.984374 23.597656 0 44.09375 1.113281 60.644531 2.789062zm22.0625-32.933594c-17.933594-2.371094-41.667969-3.828125-73.078125-3.828125-70.300781 0-103.460937 6.84375-118.527344 14.5625-8.203125-10.910156-16.003906-21.582031-23.078125-31.652344l-.5-.714844c-.5-.714843-.929687-1.351562-1.417968-2.046874-1.800782-2.59375-3.582032-5.167969-5.285157-7.683594-.667969-.976563-1.273437-1.886719-1.898437-2.835938-1.695313-2.515625-3.339844-5.011718-4.933594-7.480468-.421875-.644532-.863281-1.320313-1.265625-1.945313-1.605469-2.496094-3.132813-4.933594-4.582031-7.292969 5.707031 1.957032 12.175781 3.757813 19.34375 5.421875 3.972656.917969 8.125 1.808594 12.546875 2.640625l-.097657.195313 13.117188 2.027343 7.136719 1.097657.039062-.089844c30.066407 4.179687 65.953125 6.410156 104.496094 6.410156 21.015625 0 64.347656-.769531 104.421875-6.292969zm-253.542969-19.097656c-34.75 0-63.007812-28.269531-63.007812-63.015625s28.269531-63.015625 63.007812-63.015625c22.960938 0 43.039063 12.390625 54.050781 30.792969 2.855469 4.785156 5.050782 9.894531 6.558594 15.179687.085938.304687.15625.609375.234375.910156.585938 2.191407 1.027344 4.414063 1.378907 6.65625.089843.558594.183593 1.117188.253906 1.671875.324218 2.585938.539062 5.179688.539062 7.792969 0 3.179687-.332031 6.324219-.800781 9.433594-.117187.773437-.253906 1.546875-.402344 2.320312-.597656 3.09375-1.339843 6.15625-2.417969 9.160157-2.964843-.515626-5.734374-1.035157-8.386718-1.574219-1.734375-.351563-3.347656-.703125-4.964844-1.054688-.800781-.179687-1.652344-.351562-2.425781-.53125-1.871094-.429687-3.640625-.859375-5.34375-1.300781-.382813-.097656-.785157-.195312-1.164063-.292969-1.800781-.46875-3.496094-.9375-5.109375-1.40625-.226562-.070312-.453125-.128906-.667969-.199219-1.613281-.476562-3.140624-.949218-4.582031-1.429687-.203125-.066406-.410156-.136719-.617187-.203125-1.351563-.453125-2.621094-.902344-3.816406-1.351562-.332032-.128907-.644532-.246094-.960938-.375-.96875-.371094-1.886719-.734376-2.75-1.09375-.691406-.292969-1.359375-.589844-1.984375-.875-.382813-.175782-.773437-.339844-1.136719-.515626-9.925781-4.75-11.109375-8.390624-11.117187-8.457031l-.03125.019531c-.019531-.097656-.058594-.207031-.058594-.285156h-.078125c-1.457031-4.738281-6.195312-7.46875-11.070312-6.5-3.484376.65625-6.109376 3.289063-7.253907 6.507813h-1.175781c0 6.921875 2.96875 18.910156 22.691406 49.566406.097656.15625.175782.285156.28125.453125.148438.222656.316406.46875.460938.691406 2.132812 3.300782 4.394531 6.746094 6.929687 10.484375-4.921875 1.21875-9.953125 1.835938-15.0625 1.835938zm276.816407 323.605469c-8.730469 5.804687-41.636719 14.679687-96.34375 14.679687-54.707032 0-87.625-8.878906-96.347657-14.679687 8.195313-5.453126 37.714844-13.605469 86.558594-14.585938v11.070312c0 5.414063 4.386719 9.789063 9.789063 9.789063 5.402343 0 9.789062-4.375 9.789062-9.789063v-11.070312c48.84375.972656 78.351562 9.132812 86.554688 14.585938zm-79.527344-168.511719c-4.191406 5.234375-10.445313 8.300781-17.140625 8.378906-.097657 0-.195313 0-.28125 0-6.617188 0-12.84375-2.898437-17.121094-7.980469-18.097656-21.523437-45.347656-54.410156-72.21875-88.550781 33.242187 6.535156 76.984375 7.066406 89.9375 7.066406 12.476563 0 25.035156-.453125 37.136719-1.242187l-43.050782 64.265625c-3.003906 4.492187-1.800781 10.574219 2.683594 13.585937 1.671875 1.117188 3.5625 1.65625 5.441406 1.65625 3.152344 0 6.253907-1.519531 8.144532-4.335937l51.867187-77.433594c6.519531-.773437 12.722657-1.664063 18.46875-2.671875 1.632813-.285156 3.015625-.597656 4.542969-.890625-18.902344 25.292969-41.511719 54.527344-68.410156 88.152344zm149.570312-218.121094c0 3.367187-7.574218 8.554687-23.882812 13.636719l15.3125-22.84375c5.539062 3.472656 8.570312 6.683594 8.570312 9.207031zm0 0" transform="matrix(0.11718791723251343 0 0 0.11718791723251343 199.99999988281206 270)" id="L1_69"/><g transform="matrix(0.0683069548396966 0.0683069548396966 -0.0683069548396966 0.0683069548396966 333.9445294260479 271.0205446426487)" id="L1_70"><path d="m96.324219 347.601562c-12.617188-12.585937-33.113281-12.585937-45.707031 0-6.097657 6.097657-9.472657 14.222657-9.472657 22.863282 0 8.632812 3.375 16.757812 9.472657 22.855468 6.304687 6.304688 14.578124 9.449219 22.851562 9.449219 8.277344 0 16.554688-3.144531 22.855469-9.449219 6.097656-6.097656 9.472656-14.222656 9.472656-22.855468 0-8.640625-3.363281-16.753906-9.472656-22.863282zm-15.234375 30.480469c-4.214844 4.214844-11.023438 4.214844-15.234375 0-2.027344-2.035156-3.160157-4.738281-3.160157-7.617187 0-2.886719 1.121094-5.582032 3.160157-7.617188 2.101562-2.105468 4.859375-3.148437 7.617187-3.148437 2.757813 0 5.515625 1.046875 7.617188 3.148437v.011719c2.039062 2.023437 3.15625 4.71875 3.15625 7.605469 0 2.867187-1.121094 5.570312-3.15625 7.617187zm0 0"/><path d="m508.167969 147.46875c-1.628907-7.917969-6.90625-14.578125-14.105469-17.753906-4.859375-2.167969-6.667969-7.125-9.09375-15.019532-2.46875-8.105468-6.960938-23.082031-23.921875-21.640624-5.742187.570312-10.785156-1.066407-14.234375-4.5-3.4375-3.4375-5.042969-8.503907-4.503906-14.234376 1.132812-12.242187-2.671875-23.417968-10.730469-31.488281-7.605469-7.59375-18.003906-11.269531-29.976563-10.859375-.140624-.679687-.28125-1.433594-.398437-2.070312-1.542969-8.148438-4.71875-24.933594-28.144531-28.09375-4.136719-1.3125-15.484375-4.050782-24.902344 1.726562-4.492188 2.769532-10.085938 8.425782-11.261719 20.761719l-.246093 67.488281h-110.015626c-17.132812 0-33.75 2.078125-49.804687 5.710938-5.753906-21.683594-15.28125-42.195313-28.878906-60.96875l-5.34375-7.378906-8.167969 4.027343c-2.046875 1.015625-50.308594 25.355469-63.617188 67.21875-5.386718 16.925781-4.367187 34.136719 3.003907 51.289063-44.941407 41.355468-73.324219 100.457031-73.324219 166.199218v194.117188h192.621094c60.804687 0 117.957031-23.675781 160.949218-66.679688 5.214844-5.214843 10.128907-10.664062 14.773438-16.277343 4.742188.386719 9.65625.664062 14.9375.664062 30.394531 0 69.046875-7.453125 107.460938-35.289062l7.378906-5.34375-4.050782-8.167969c-1.238281-2.511719-28.941406-57.097656-76.128906-65.78125 1.359375-10.128906 2.308594-20.355469 2.296875-30.742188v-109.371093l68.066407.636719.863281-.140626c4.902343-.753906 9.300781-3.09375 12.75-6.777343l.03125-.03125c5.167969-5.582031 7.304687-13.523438 5.71875-21.230469zm-416.875-10.578125c-3.117188-10.117187-3.082031-19.988281.054687-29.878906 7.625-24.105469 31.828125-41.898438 44.621094-49.878907 9.253906 14.417969 16.0625 29.824219 20.351562 45.976563-9.738281 3.203125-19.113281 7.144531-28.230468 11.585937-2.207032 1.066407-4.460938 2.058594-6.625 3.199219-3.019532 1.597657-5.917969 3.351563-8.859375 5.066407-3.003907 1.757812-5.988281 3.523437-8.910157 5.417968-2.652343 1.726563-5.226562 3.523438-7.789062 5.355469-1.53125 1.074219-3.125 2.035156-4.613281 3.15625zm323.355469 199.339844c27.164062 5.078125 47.328124 32.347656 55.957031 46.195312-31.097657 20.023438-61.863281 25.667969-86.515625 25.722657 14.015625-21.539063 24.058594-45.222657 30.0625-70.160157.152344-.59375.359375-1.164062.496094-1.757812zm72.003906-182.152344-87.464844-.800781v131.117187c0 12.464844-1.25 24.726563-3.394531 36.742188l-.28125 1.519531c-.613281 3.253906-1.355469 6.496094-2.132813 9.71875-.332031 1.390625-.675781 2.769531-1.03125 4.148438-7.082031 26.960937-19.675781 52.542968-36.984375 74.652343l-4.167969 5.324219c-3.921874 4.675781-7.984374 9.246094-12.347656 13.605469-38.921875 38.921875-90.675781 60.367187-145.714844 60.367187h-171.082031v-172.578125c0-62.59375 28.328125-118.636719 72.753907-156.203125 16.84375-14.222656 35.539062-25.492187 55.839843-33.585937.160157-.0625.320313-.105469.472657-.167969 6.691406-2.652344 13.554687-4.957031 20.582031-6.910156 17.507812-4.890625 35.882812-7.714844 54.941406-7.714844h131.480469l.28125-87.917969c.226562-2.304687.796875-3.359375 1.054687-3.511719 1.066407-.667968 4.796875-.398437 7.296875.515626l2.691406.667968c8.730469.96875 9.203126 3.449219 10.582032 10.839844 1.121094 5.832031 4.074218 21.28125 22.078125 19.65625 5.722656-.539062 10.785156 1.066406 14.246093 4.503906 3.4375 3.445313 5.042969 8.511719 4.503907 14.242188-1.132813 12.242187 2.671875 23.417968 10.730469 31.476562 7.824218 7.8125 18.671874 11.570313 30.578124 10.808594.722657 1.5625 1.585938 4.371094 2.210938 6.390625 2.683594 8.789063 6.746094 22.085937 20.9375 28.414063 1.023438.449218 1.574219 1.550781 1.746094 2.421874.097656.445313.226562 1.542969-.421875 2.242188zm1.464844 1.644531v-.300781l6.429687 5.960937zm0 0"/><path d="m73.46875 268.25v21.554688c83.1875 0 150.855469 67.667968 150.855469 150.851562h21.550781c0-95.058594-77.34375-172.40625-172.40625-172.40625zm0 0"/><path d="m108.542969 233.1875v21.550781c83.1875 0 150.855469 67.671875 150.855469 150.855469h21.550781c0-95.070312-77.34375-172.40625-172.40625-172.40625zm0 0"/><path d="m142.042969 199.679688v21.550781c83.1875 0 150.855469 67.667969 150.855469 150.855469h21.550781c0-95.0625-77.332031-172.40625-172.40625-172.40625zm0 0"/><path d="m177.117188 164.605469v21.550781c83.1875 0 150.855468 67.667969 150.855468 150.855469h21.550782c0-95.0625-77.335938-172.40625-172.40625-172.40625zm0 0"/></g><g transform="matrix(0.11718785017728806 0 0 0.11718785017728806 204 153.00000008789084)" id="L1_71"><path d="m307.421875 300.476562c4.734375 0 8.574219-3.828124 8.574219-8.570312 0-33.074219-26.914063-59.996094-59.996094-59.996094-4.730469 0-8.570312 3.832032-8.570312 8.570313 0 4.742187 3.839843 8.574219 8.570312 8.574219 23.628906 0 42.851562 19.222656 42.851562 42.851562 0 4.730469 3.832032 8.570312 8.570313 8.570312zm0 0"/><path d="m333.136719 300.476562c4.730469 0 8.570312-3.828124 8.570312-8.570312 0-47.257812-38.449219-85.707031-85.707031-85.707031-18.90625 0-34.28125 15.375-34.28125 34.28125 0 4.742187 3.839844 8.574219 8.570312 8.574219 4.730469 0 8.570313-3.832032 8.570313-8.574219 0-9.453125 7.6875-17.140625 17.144531-17.140625 37.804688 0 68.566406 30.761718 68.566406 68.566406-.003906 4.730469 3.828126 8.570312 8.566407 8.570312zm0 0"/><path d="m256 257.625c-4.730469 0-8.570312 3.832031-8.570312 8.570312 0 4.738282 3.839843 8.570313 8.570312 8.570313 9.453125 0 17.140625 7.6875 17.140625 17.144531 0 4.738282 3.839844 8.570313 8.570313 8.570313 4.730468 0 8.570312-3.832031 8.570312-8.570313 0-18.910156-15.382812-34.285156-34.28125-34.285156zm0 0"/><path d="m358.847656 300.476562c4.730469 0 8.570313-3.828124 8.570313-8.570312 0-61.433594-49.984375-111.417969-111.417969-111.417969h-17.144531c-23.628907 0-42.851563 19.222657-42.851563 42.851563 0 4.742187 3.839844 8.570312 8.570313 8.570312s8.570312-3.828125 8.570312-8.570312c0-14.175782 11.535157-25.710938 25.714844-25.710938h17.140625c51.980469 0 94.277344 42.296875 94.277344 94.277344 0 4.730469 3.832031 8.570312 8.570312 8.570312zm0 0"/><path d="m136.007812 103.351562c4.730469 0 8.570313-3.832031 8.570313-8.570312h42.855469c13.945312 0 26.234375-6.796875 34.058594-17.144531h240.203124c14.175782 0 25.714844-11.535157 25.714844-25.710938 0-14.179687-11.535156-25.714843-25.714844-25.714843h-240.203124c-7.832032-10.34375-20.121094-17.140626-34.058594-17.140626h-42.855469c0-4.738281-3.839844-8.570312-8.570313-8.570312-4.730468 0-8.570312 3.832031-8.570312 8.570312v85.707032c0 4.734375 3.832031 8.574218 8.570312 8.574218zm325.691407-59.996093c4.722656 0 8.570312 3.839843 8.570312 8.570312s-3.847656 8.570313-8.570312 8.570313h-232.277344c.566406-2.765625.867187-5.636719.867187-8.570313 0-2.929687-.300781-5.800781-.867187-8.570312zm-274.265625-17.140625c8.605468 0 16.199218 4.285156 20.863281 10.796875l1.222656 2.101562c1.148438 1.964844 2 3.984375 2.597657 6.035157.042968.144531.105468.289062.136718.445312.574219 2.082031.882813 4.199219.882813 6.332031 0 2.136719-.304688 4.253907-.882813 6.332031-.042968.15625-.09375.292969-.136718.449219-.597657 2.046875-1.449219 4.070313-2.597657 6.03125l-1.222656 2.101563c-4.671875 6.511718-12.257813 10.800781-20.863281 10.800781h-42.855469v-17.125c6.222656.007813 16.695313.015625 34.285156.015625 4.730469 0 8.570313-3.832031 8.570313-8.570312 0-4.742188-3.839844-8.570313-8.570313-8.570313-17.621093 0-28.085937-.011719-34.285156-.019531v-17.15625zm0 0"/><path d="m110.296875 103.351562c4.730469 0 8.570313-3.832031 8.570313-8.570312v-85.710938c0-4.738281-3.839844-8.570312-8.570313-8.570312s-8.570313 3.832031-8.570313 8.570312v85.707032c0 4.734375 3.832032 8.574218 8.570313 8.574218zm0 0"/><path d="m110.296875 214.769531c4.730469 0 8.570313-3.828125 8.570313-8.570312v-85.707031c0-4.742188-3.839844-8.570313-8.570313-8.570313s-8.570313 3.828125-8.570313 8.570313v85.707031c0 4.730469 3.832032 8.570312 8.570313 8.570312zm0 0"/><path d="m84.585938 120.492188c-4.734376 0-8.574219 3.832031-8.574219 8.570312v85.707031c0 4.738281 3.839843 8.570313 8.574219 8.570313 4.730468 0 8.570312-3.832032 8.570312-8.570313v-85.707031c0-4.738281-3.839844-8.570312-8.570312-8.570312zm0 0"/><path d="m41.730469 69.066406c-4.730469 0-8.570313 3.832032-8.570313 8.570313 0 4.742187 3.839844 8.574219 8.570313 8.574219h34.285156v19.617187c0 4.738281 3.839844 8.570313 8.570313 8.570313 4.730468 0 8.570312-3.832032 8.570312-8.570313v-96.757813c0-4.738281-3.839844-8.570312-8.570312-8.570312-4.730469 0-8.570313 3.832031-8.570313 8.570312v8.574219h-34.285156c-4.730469 0-8.570313 3.828125-8.570313 8.570313 0 4.738281 3.839844 8.570312 8.570313 8.570312h34.285156v8.570313h-34.285156c-4.730469 0-8.570313 3.832031-8.570313 8.570312 0 4.742188 3.839844 8.570313 8.570313 8.570313h34.285156v8.574218c0-.003906-34.285156-.003906-34.285156-.003906zm0 0"/><path d="m435.546875 394.753906c-4.351563-47.976562-44.746094-85.707031-93.839844-85.707031h-59.996093c-4.730469 0-8.570313 3.832031-8.570313 8.574219 0 4.738281 3.839844 8.570312 8.570313 8.570312h59.996093c39.632813 0 72.355469 30.054688 76.632813 68.566406h-8.65625c-4.242188-33.769531-33.074219-59.996093-67.976563-59.996093h-51.425781c-4.730469 0-8.570312 3.832031-8.570312 8.570312 0 4.742188 3.839843 8.570313 8.570312 8.570313h51.425781c25.429688 0 46.546875 18.574218 50.652344 42.855468h-8.664063c-3.984374-19.535156-21.289062-34.285156-41.988281-34.285156h-42.851562c-4.730469 0-8.574219 3.832032-8.574219 8.574219 0 4.738281 3.84375 8.570313 8.574219 8.570313h42.851562c11.160157 0 20.589844 7.191406 24.136719 17.140624h-15.566406c0-4.738281-3.839844-8.570312-8.570313-8.570312h-42.851562c-4.730469 0-8.574219 3.832031-8.574219 8.570312h-8.714844c-3.007812-126.136718-72.148437-171.414062-136.984375-171.414062h-8.570312c-47.261719 0-85.707031 38.449219-85.707031 85.707031v42.851563c0 4.742187 3.839843 8.570312 8.570312 8.570312s8.570312-3.828125 8.570312-8.570312v-42.851563c0-37.804687 30.761719-68.566406 68.566407-68.566406h8.570312c85.269531 0 117.632813 78.128906 119.863281 154.273437h-8.5625c-2.402343-91.441406-43.625-145.703124-111.308593-145.703124-33.085938 0-59.996094 26.921874-59.996094 59.996093v8.570313c0 4.738281 3.839844 8.570312 8.570313 8.570312 4.730468 0 8.570312-3.832031 8.570312-8.570312v-8.570313c0-23.628906 19.226562-42.855469 42.855469-42.855469 79.636719 0 92.785156 83.996094 94.140625 128.5625h-8.554688c-2.460937-98.871093-47.566406-119.988281-85.585937-119.988281-14.175781 0-25.714844 11.535157-25.714844 25.710938 0 4.738281 3.839844 8.570312 8.570313 8.570312 4.734374 0 8.574218-3.832031 8.574218-8.570312 0-4.730469 3.847656-8.570313 8.570313-8.570313 44.316406 0 66.695312 33.734375 68.402343 102.847656h-8.410156c0-4.738281-3.839844-8.570312-8.570312-8.570312h-42.851563c-4.734375 0-8.574219 3.832031-8.574219 8.570312h-15.5625c3.546876-9.949218 12.972657-17.140624 24.132813-17.140624h42.855469c4.730468 0 8.570312-3.832032 8.570312-8.570313 0-4.742187-3.839844-8.574219-8.570312-8.574219h-42.855469c-20.6875 0-38.003906 14.753906-41.988281 34.285156h-8.664063c4.097657-24.28125 25.214844-42.855468 50.652344-42.855468h34.28125c4.734375 0 8.574219-3.828125 8.574219-8.570313 0-4.738281-3.839844-8.570312-8.574219-8.570312h-34.28125c-34.898437 0-63.730469 26.226562-67.972656 59.996093h-8.65625c4.285156-38.507812 37-68.566406 76.628906-68.566406h17.144531c4.730469 0 8.570313-3.832031 8.570313-8.570312 0-4.742188-3.839844-8.574219-8.570313-8.574219h-17.144531c-49.09375 0-89.496094 37.730469-93.839844 85.707031h-59.300781l26.097656 39.144532c12.28125 18.417968 32.835938 29.421874 54.980469 29.421874h349.839844c22.140625 0 42.691406-10.996093 54.980469-29.421874l26.101562-39.144532zm36.085937 29.640625c-9.09375 13.644531-24.316406 21.785157-40.710937 21.785157h-349.851563c-16.40625 0-31.617187-8.140626-40.710937-21.785157l-8.332031-12.496093h447.933594zm0 0"/></g><g transform="matrix(0.1171879768371582 0 0 0.1171879768371582 298.999999970703 143)" id="L1_72"><path d="m489.90625 137.394531c-18.226562-44.882812-52.21875-103.265625-110.726562-126.550781-42.921876-17.085938-92.660157-12.988281-147.820313 12.152344-68.96875 31.441406-91.53125 87.796875-63.496094 158.695312 8.691407 21.988282 5.390625 46.003906-8.84375 64.238282-14.253906 18.265624-36.816406 27.265624-60.304687 24.242187-37.460938-4.910156-66.207032 3.484375-83.175782 24.308594-12.992187 15.953125-24.488281 46.417969-5.53125 100.949219l.355469.886718c1.351563 2.953125 34.207031 72.605469 118.527344 100.484375 18.214844 6.023438 37.082031 7.695313 55.328125 9.304688l2.882812.257812c6.085938.542969 16.597657 1.242188 30.238282 1.242188 34.050781 0 87.652344-4.355469 140.886718-26.382813 77.554688-32.085937 126.757813-89.222656 146.238282-169.828125 13.691406-56.632812 8.652344-116.8125-14.558594-174zm-4.644531 169.355469c-17.910157 74.128906-63.191407 126.691406-134.589844 156.226562-70.394531 29.109376-141.625 25.496094-161.808594 23.707032l-2.894531-.257813c-17.90625-1.582031-34.820312-3.082031-50.863281-8.386719-72.871094-24.09375-103.988281-84.292968-106.617188-89.625-12.269531-35.59375-11.429687-64.496093 2.371094-81.457031 12.417969-15.234375 34.988281-21.160156 65.265625-17.199219 30.59375 4.039063 59.875-7.824218 78.472656-31.667968 18.582032-23.816406 22.917969-55.09375 11.628906-83.660156-24.261718-61.375-6.320312-106.269532 53.324219-133.457032 50.082031-22.820312 94.601563-26.78125 132.316407-11.773437 52.03125 20.703125 82.941406 74.304687 99.722656 115.625 21.664062 53.34375 26.386718 109.324219 13.671875 161.925781zm0 0"/><path d="m330.527344 183.648438c27.234375 0 49.390625-22.15625 49.390625-49.394532 0-27.234375-22.15625-49.390625-49.390625-49.390625s-49.390625 22.15625-49.390625 49.390625c0 27.238282 22.15625 49.394532 49.390625 49.394532zm0-79.027344c16.339844 0 29.636718 13.292968 29.636718 29.632812 0 16.34375-13.296874 29.636719-29.636718 29.636719s-29.636719-13.292969-29.636719-29.636719c0-16.339844 13.296875-29.632812 29.636719-29.632812zm0 0"/><path d="m472.035156 237.5625c-1.253906-28.253906-7.371094-56.753906-18.632812-84.5-42.890625-105.597656-113.320313-137.722656-208.945313-94.191406-19.144531 8.734375-77.386719 35.289062-45.882812 114.964844 11.464843 29.023437 8.148437 60.21875-9.101563 85.558593-19.527344 28.714844-53.320312 43.738281-88.269531 39.125-26.03125-3.476562-45.558594 1.691407-54.570313 14.386719-9.550781 13.441406-9.464843 36.726562.257813 65.539062l.574219 1.355469c4.929687 9.621094 32.714844 58.65625 95.699218 79.492188 14.316407 4.730469 29.953126 6.113281 46.488282 7.574219l2.796875.246093c8.375.753907 17.367187 1.128907 26.730469 1.128907 186.601562 0 234.808593-116.101563 246.871093-166.027344 4.957031-20.515625 6.84375-41.605469 6.0625-62.84375.058594-.625-.011719-1.207032-.078125-1.808594zm-219.378906-160.710938c25.023438-11.410156 48.066406-17.1875 68.496094-17.1875 48.433594 0 86.769531 33.933594 113.945312 100.828126 8.121094 20.003906 13.277344 40.410156 15.777344 60.78125-44.246094-12.488282-122.609375 26.324218-135.691406 33.0625-59.082032 18.789062-86.445313-8.148438-93.953125-17.679688 6.074219-22.691406 4.851562-46.941406-4.296875-70.078125-21.660156-54.835937 5.902344-76.132813 35.722656-89.726563zm-46.832031 193.65625c2.972656-4.367187 5.511719-8.910156 7.804687-13.535156 11.546875 10.582032 32.105469 23.550782 63.742188 23.550782 12.980468 0 27.828125-2.191407 44.660156-7.625.523438-.167969 1.027344-.378907 1.523438-.632813 38.910156-20.269531 106.339843-44.886719 128.980468-28.90625.40625 18.34375-1.414062 36.527344-5.679687 54.222656-.097657.394531-.21875.832031-.316407 1.234375-21.515624-6.054687-73.691406-12.128906-159.800781 29.171875-29.449219 14.125-54.875 16.882813-75.550781 8.21875-19.992188-8.375-31.183594-25.773437-36.144531-35.550781 11.902343-7.84375 22.453125-17.910156 30.78125-30.148438zm-11.609375 176.921876-2.804688-.25c-15.378906-1.351563-29.898437-2.636719-42.039062-6.648438-54.992188-18.195312-80.035156-61.628906-83.996094-69.117188-8.464844-25.484374-6.925781-41.003906-2.628906-47.070312 4.296875-6.054688 18.167968-8.585938 35.878906-6.242188 19.757812 2.605469 39.148438-.167968 56.722656-7.203124.59375 3.210937 1.214844 6.847656 1.785156 10.765624 5.039063 34.359376 24.222657 65.296876 52.625 84.90625 20.328126 14.019532 34.070313 26.660157 34.691407 41.054688-8.128907.523438-16.488281.859375-25.269531.859375-8.773438-.007813-17.179688-.367187-24.964844-1.054687zm69.988281-1.570313c-1.589844-26.773437-28.023437-45.066406-43.226563-55.558594-17.355468-11.96875-30.613281-28.980469-38.199218-48.472656 5.808594 4.792969 12.617187 9.148437 20.527344 12.496094 26.167968 11.074219 57.105468 8.210937 91.988281-8.523438 80.890625-38.804687 128.179687-32.746093 145.46875-28.035156-16.421875 45.203125-60.320313 113.886719-176.558594 128.09375zm0 0"/></g></defs><g fi:class="KUsePattern" opacity="1"><pattern id="pattern_L1_64" width="350" height="350" patternUnits="userSpaceOnUse"><use xlink:href="#L1_64" x="-350" y="-350"/><use xlink:href="#L1_64" x="0" y="-350"/><use xlink:href="#L1_64" x="350" y="-350"/><use xlink:href="#L1_64" x="-350" y="0"/><use xlink:href="#L1_64" x="0" y="0"/><use xlink:href="#L1_64" x="350" y="0"/><use xlink:href="#L1_64" x="-350" y="350"/><use xlink:href="#L1_64" x="0" y="350"/><use xlink:href="#L1_64" x="350" y="350"/></pattern><rect x="0" y="0" width="100%" height="100%" fill="url(#pattern_L1_64)"/></g><g fi:class="KUsePattern"><pattern id="pattern_L1_65" width="350" height="350" patternUnits="userSpaceOnUse"><use xlink:href="#L1_65" x="-350" y="-350"/><use xlink:href="#L1_65" x="0" y="-350"/><use xlink:href="#L1_65" x="350" y="-350"/><use xlink:href="#L1_65" x="-350" y="0"/><use xlink:href="#L1_65" x="0" y="0"/><use xlink:href="#L1_65" x="350" y="0"/><use xlink:href="#L1_65" x="-350" y="350"/><use xlink:href="#L1_65" x="0" y="350"/><use xlink:href="#L1_65" x="350" y="350"/></pattern><rect x="0" y="0" width="100%" height="100%" fill="url(#pattern_L1_65)"/></g><g fi:class="KUsePattern"><pattern id="pattern_L1_66" width="350" height="350" patternUnits="userSpaceOnUse"><use xlink:href="#L1_66" x="-350" y="-350"/><use xlink:href="#L1_66" x="0" y="-350"/><use xlink:href="#L1_66" x="350" y="-350"/><use xlink:href="#L1_66" x="-350" y="0"/><use xlink:href="#L1_66" x="0" y="0"/><use xlink:href="#L1_66" x="350" y="0"/><use xlink:href="#L1_66" x="-350" y="350"/><use xlink:href="#L1_66" x="0" y="350"/><use xlink:href="#L1_66" x="350" y="350"/></pattern><rect x="0" y="0" width="100%" height="100%" fill="url(#pattern_L1_66)"/></g><g fi:class="KUsePattern"><pattern id="pattern_L1_67" width="350" height="350" patternUnits="userSpaceOnUse"><use xlink:href="#L1_67" x="-350" y="-350"/><use xlink:href="#L1_67" x="0" y="-350"/><use xlink:href="#L1_67" x="350" y="-350"/><use xlink:href="#L1_67" x="-350" y="0"/><use xlink:href="#L1_67" x="0" y="0"/><use xlink:href="#L1_67" x="350" y="0"/><use xlink:href="#L1_67" x="-350" y="350"/><use xlink:href="#L1_67" x="0" y="350"/><use xlink:href="#L1_67" x="350" y="350"/></pattern><rect x="0" y="0" width="100%" height="100%" fill="url(#pattern_L1_67)"/></g><g fi:class="KUsePattern"><pattern id="pattern_L1_68" width="350" height="350" patternUnits="userSpaceOnUse"><use xlink:href="#L1_68" x="-350" y="-350"/><use xlink:href="#L1_68" x="0" y="-350"/><use xlink:href="#L1_68" x="350" y="-350"/><use xlink:href="#L1_68" x="-350" y="0"/><use xlink:href="#L1_68" x="0" y="0"/><use xlink:href="#L1_68" x="350" y="0"/><use xlink:href="#L1_68" x="-350" y="350"/><use xlink:href="#L1_68" x="0" y="350"/><use xlink:href="#L1_68" x="350" y="350"/></pattern><rect x="0" y="0" width="100%" height="100%" fill="url(#pattern_L1_68)"/></g><g fi:class="KUsePattern"><pattern id="pattern_L1_69" width="350" height="350" patternUnits="userSpaceOnUse"><use xlink:href="#L1_69" x="-350" y="-350"/><use xlink:href="#L1_69" x="0" y="-350"/><use xlink:href="#L1_69" x="350" y="-350"/><use xlink:href="#L1_69" x="-350" y="0"/><use xlink:href="#L1_69" x="0" y="0"/><use xlink:href="#L1_69" x="350" y="0"/><use xlink:href="#L1_69" x="-350" y="350"/><use xlink:href="#L1_69" x="0" y="350"/><use xlink:href="#L1_69" x="350" y="350"/></pattern><rect x="0" y="0" width="100%" height="100%" fill="url(#pattern_L1_69)"/></g><g fi:class="KUsePattern"><pattern id="pattern_L1_70" width="350" height="350" patternUnits="userSpaceOnUse"><use xlink:href="#L1_70" x="-350" y="-350"/><use xlink:href="#L1_70" x="0" y="-350"/><use xlink:href="#L1_70" x="350" y="-350"/><use xlink:href="#L1_70" x="-350" y="0"/><use xlink:href="#L1_70" x="0" y="0"/><use xlink:href="#L1_70" x="350" y="0"/><use xlink:href="#L1_70" x="-350" y="350"/><use xlink:href="#L1_70" x="0" y="350"/><use xlink:href="#L1_70" x="350" y="350"/></pattern><rect x="0" y="0" width="100%" height="100%" fill="url(#pattern_L1_70)"/></g><g fi:class="KUsePattern"><pattern id="pattern_L1_71" width="350" height="350" patternUnits="userSpaceOnUse"><use xlink:href="#L1_71" x="-350" y="-350"/><use xlink:href="#L1_71" x="0" y="-350"/><use xlink:href="#L1_71" x="350" y="-350"/><use xlink:href="#L1_71" x="-350" y="0"/><use xlink:href="#L1_71" x="0" y="0"/><use xlink:href="#L1_71" x="350" y="0"/><use xlink:href="#L1_71" x="-350" y="350"/><use xlink:href="#L1_71" x="0" y="350"/><use xlink:href="#L1_71" x="350" y="350"/></pattern><rect x="0" y="0" width="100%" height="100%" fill="url(#pattern_L1_71)"/></g><g fi:class="KUsePattern"><pattern id="pattern_L1_72" width="350" height="350" patternUnits="userSpaceOnUse"><use xlink:href="#L1_72" x="-350" y="-350"/><use xlink:href="#L1_72" x="0" y="-350"/><use xlink:href="#L1_72" x="350" y="-350"/><use xlink:href="#L1_72" x="-350" y="0"/><use xlink:href="#L1_72" x="0" y="0"/><use xlink:href="#L1_72" x="350" y="0"/><use xlink:href="#L1_72" x="-350" y="350"/><use xlink:href="#L1_72" x="0" y="350"/><use xlink:href="#L1_72" x="350" y="350"/></pattern><rect x="0" y="0" width="100%" height="100%" fill="url(#pattern_L1_72)"/></g></svg>